<?xml version="1.0" encoding="UTF-8" standalone="no"?>
<svg width="56px" height="50px" viewBox="0 0 56 50" version="1.1" xmlns="http://www.w3.org/2000/svg" xmlns:xlink="http://www.w3.org/1999/xlink">
    <!-- Generator: Sketch 3.8.3 (29802) - http://www.bohemiancoding.com/sketch -->
    <title>Fill 1</title>
    <desc>Created with Sketch.</desc>
    <defs></defs>
    <g id="Page-1" stroke="none" stroke-width="1" fill="none" fill-rule="evenodd">
        <path d="M40.11896,34.86476 C39.152,34.27384 38.07216,33.7516 36.891,33.31572 C37.65804,31.0418 38.12384,28.4476 38.18912,25.68 L43.62232,25.68 C43.47408,29.15956 42.17936,32.3372 40.11896,34.86476 L40.11896,34.86476 Z M32.9946,39.8206 C34.36888,38.53064 35.54256,36.72184 36.42656,34.55944 C37.452,34.9314 38.38836,35.37136 39.23088,35.86368 C37.51388,37.63848 35.38752,39.01412 32.9946,39.8206 L32.9946,39.8206 Z M28.68,40.589 L28.68,33.18108 C31.009,33.2382 33.20132,33.57888 35.15768,34.15008 C33.67664,37.76904 31.34764,40.22996 28.68,40.589 L28.68,40.589 Z M20.84232,34.15076 C22.79868,33.57956 24.991,33.23752 27.32,33.18108 L27.32,40.589 C24.65304,40.22996 22.32404,37.76904 20.84232,34.15076 L20.84232,34.15076 Z M16.76912,35.86504 C17.61164,35.37204 18.54936,34.93412 19.57412,34.56216 C20.45812,36.7232 21.63112,38.53132 23.00472,39.8206 C20.61248,39.0148 18.4868,37.63848 16.76912,35.86504 L16.76912,35.86504 Z M17.8102,25.68 C17.87548,28.44692 18.34128,31.03976 19.10764,33.31232 C17.92512,33.74888 16.84868,34.27452 15.88172,34.86544 C13.82064,32.33788 12.52592,29.16024 12.377,25.68 L17.8102,25.68 Z M15.88104,15.13456 C16.848,15.72548 17.92716,16.2484 19.109,16.68496 C18.34128,18.9582 17.87548,21.55172 17.8102,24.32 L12.377,24.32 C12.52592,20.83976 13.81996,17.66212 15.88104,15.13456 L15.88104,15.13456 Z M23.00472,10.1794 C21.63112,11.468 20.45812,13.27544 19.57344,15.43716 C18.54936,15.0652 17.61164,14.62728 16.76912,14.13496 C18.48612,12.36084 20.61248,10.9852 23.00472,10.1794 L23.00472,10.1794 Z M27.32,9.41032 L27.32,16.81824 C24.991,16.7618 22.79868,16.41976 20.84232,15.84924 C22.32336,12.23028 24.65304,9.77004 27.32,9.41032 L27.32,9.41032 Z M19.16952,24.32 C19.23344,21.6918 19.66932,19.2404 20.37788,17.1052 C22.48112,17.74032 24.82916,18.1184 27.32,18.17756 L27.32,24.32 L19.16952,24.32 Z M19.16952,25.68 L27.32,25.68 L27.32,31.82176 C24.82916,31.8816 22.48044,32.25832 20.3772,32.89412 C19.66932,30.75824 19.23344,28.30684 19.16952,25.68 L19.16952,25.68 Z M36.8298,25.68 C36.76588,28.30752 36.33068,30.7596 35.62212,32.8948 C33.51888,32.25968 31.17084,31.88092 28.68,31.82176 L28.68,25.68 L36.8298,25.68 Z M28.68,18.17756 C31.17084,18.1184 33.51888,17.74032 35.62212,17.1052 C36.33068,19.2404 36.76588,21.6918 36.8298,24.32 L28.68,24.32 L28.68,18.17756 Z M28.68,9.41032 C31.34696,9.77004 33.67596,12.23028 35.157,15.84924 C33.20064,16.41976 31.009,16.76248 28.68,16.81892 L28.68,9.41032 Z M39.23156,14.13564 C38.38972,14.62864 37.44996,15.06452 36.4252,15.43648 C35.5412,13.27544 34.3682,11.468 32.9946,10.1794 C35.3882,10.9852 37.51456,12.36152 39.23156,14.13564 L39.23156,14.13564 Z M40.11828,15.13388 C42.17936,17.66212 43.47408,20.83976 43.62232,24.32 L38.18912,24.32 C38.12384,21.55172 37.65804,18.9582 36.891,16.68564 C38.07284,16.24908 39.15132,15.72548 40.11828,15.13388 L40.11828,15.13388 Z M28,8 C18.61124,8 11,15.61124 11,25 C11,34.38876 18.61124,42 28,42 C37.38808,42 45,34.38876 45,25 C45,15.61124 37.38808,8 28,8 L28,8 Z" id="Fill-1" fill="#FFFFFF"></path>
    </g>
</svg>