<?xml version="1.0" encoding="UTF-8" standalone="no"?>
<svg width="50px" height="50px" viewBox="0 0 50 50" version="1.1" xmlns="http://www.w3.org/2000/svg" xmlns:xlink="http://www.w3.org/1999/xlink">
    <!-- Generator: Sketch 3.8.3 (29802) - http://www.bohemiancoding.com/sketch -->
    <title>Page 1</title>
    <desc>Created with Sketch.</desc>
    <defs></defs>
    <g id="Page-1" stroke="none" stroke-width="1" fill="none" fill-rule="evenodd">
        <path d="M22.4671991,15.5438706 L25.3005809,12.7101537 C25.5970976,12.4136019 25.7618291,11.9852494 25.7618291,11.589847 C25.7618291,11.1944446 25.5970976,10.7660921 25.3005809,10.4695403 C24.6746012,9.84348657 23.6862122,9.84348657 23.0602325,10.4695403 L17.4264152,16.1369741 C17.1298985,16.4335259 16.965167,16.8289283 16.965167,17.2572808 C16.965167,17.6856334 17.1298985,18.0810358 17.4264152,18.3775875 L23.0931788,24.0450214 C23.3896955,24.3415731 23.8179974,24.5063241 24.213353,24.5063241 C24.6087086,24.5063241 25.0370105,24.3415731 25.3335272,24.0450214 C25.6300439,23.7484696 25.7947754,23.320117 25.7947754,22.9247147 C25.7947754,22.5293123 25.6300439,22.1009598 25.3335272,21.804408 L22.236575,18.6741393 L24.9711179,18.6741393 C29.7153851,18.6741393 33.537156,22.5293123 33.537156,27.2411905 C33.537156,31.9860188 29.6824388,35.8082416 24.9711179,35.8082416 C21.4129175,35.8082416 18.1841801,33.5676282 16.9322207,30.2726086 L14,31.4258654 C15.7132076,35.9729926 20.1280118,39.0044107 24.9711179,39.0044107 C29.2737492,39.0044107 33.0261904,36.6875469 35.0670577,33.2441386 C36.1047921,31.493244 36.7000008,29.4510824 36.7000008,27.2741406 C36.7000008,20.7829519 31.461539,15.5438706 24.9711179,15.5438706 L22.4671991,15.5438706 Z" id="Shape" fill="#5E5E5E"></path>
    </g>
</svg>