<?xml version="1.0" encoding="UTF-8" standalone="no"?>
<svg width="50px" height="50px" viewBox="0 0 50 50" version="1.1" xmlns="http://www.w3.org/2000/svg" xmlns:xlink="http://www.w3.org/1999/xlink">
    <!-- Generator: Sketch 3.8.1 (29687) - http://www.bohemiancoding.com/sketch -->
    <title>Slice 1</title>
    <desc>Created with Sketch.</desc>
    <defs></defs>
    <g id="Page-1" stroke="none" stroke-width="1" fill="none" fill-rule="evenodd">
        <g id="Group-2" transform="translate(7.000000, 14.000000)" fill="#D8D8D8">
            <path d="M28.667,3.5251 L25.977,8.1841 C28.463,10.7121 30,14.1741 30,18.0001 L36,18.0001 C36,12.0571 33.107,6.8031 28.667,3.5251" id="Fill-1"></path>
            <path d="M7.335,3.5231 C2.894,6.8011 0,12.0551 0,18.0001 L2,18.0001 C2,12.9131 4.721,8.4741 8.777,6.0221 L7.335,3.5231 Z" id="Fill-3"></path>
            <path d="M18,-0.0003 C15.435,-0.0003 13,0.5447 10.792,1.5117 L12.494,4.4597 C13.616,4.1707 14.787,3.9997 16,3.9997 C18.455,3.9997 20.761,4.6357 22.767,5.7457 L25.211,1.5127 C23.002,0.5457 20.565,-0.0003 18,-0.0003" id="Fill-5"></path>
            <path d="M18.9951,20.8835 C19.9541,21.4345 21.1751,21.1075 21.7271,20.1515 C22.2801,19.1945 21.9521,17.9695 20.9951,17.4195 L5.2731,10.6505 L18.9951,20.8835 Z" id="Fill-8"></path>
        </g>
    </g>
</svg>