<?xml version="1.0" encoding="UTF-8" standalone="no"?>
<svg width="50px" height="50px" viewBox="0 0 50 50" version="1.1" xmlns="http://www.w3.org/2000/svg" xmlns:xlink="http://www.w3.org/1999/xlink">
    <!-- Generator: Sketch 3.8.1 (29687) - http://www.bohemiancoding.com/sketch -->
    <title>Slice 1</title>
    <desc>Created with Sketch.</desc>
    <defs></defs>
    <g id="Page-1" stroke="none" stroke-width="1" fill="none" fill-rule="evenodd">
        <g id="audio-speed-neutral-icon" transform="translate(7.000000, 14.000000)" fill="#D8D8D8">
            <path d="M28.667,3.5254 L25.977,8.1844 C28.463,10.7124 30,14.1744 30,18.0004 L36,18.0004 C36,12.0574 33.107,6.8034 28.667,3.5254" id="Fill-1"></path>
            <path d="M7.335,3.5234 C2.894,6.8014 0,12.0554 0,18.0004 L2,18.0004 C2,12.9134 4.721,8.4744 8.777,6.0224 L7.335,3.5234 Z" id="Fill-3"></path>
            <path d="M18,0 C15.435,0 13,0.545 10.792,1.512 L12.494,4.46 C13.616,4.171 14.787,4 16,4 C18.455,4 20.761,4.636 22.767,5.746 L25.211,1.513 C23.002,0.546 20.565,0 18,0" id="Fill-5"></path>
            <path d="M16,20.3037 C16.002,21.4087 16.896,22.3037 18,22.3037 C19.105,22.3037 20.002,21.4077 20,20.3037 L18.002,3.3037 L16,20.3037 Z" id="Fill-7"></path>
        </g>
    </g>
</svg>