<?xml version="1.0" encoding="UTF-8" standalone="no"?>
<svg width="50px" height="50px" viewBox="0 0 50 50" version="1.1" xmlns="http://www.w3.org/2000/svg" xmlns:xlink="http://www.w3.org/1999/xlink">
    <!-- Generator: Sketch 3.8.1 (29687) - http://www.bohemiancoding.com/sketch -->
    <title>Slice 1</title>
    <desc>Created with Sketch.</desc>
    <defs></defs>
    <g id="Page-1" stroke="none" stroke-width="1" fill="none" fill-rule="evenodd">
        <g id="Group-3" transform="translate(7.000000, 14.000000)" fill="#D8D8D8">
            <path d="M28.667,3.5251 L25.977,8.1841 C28.463,10.7121 30,14.1741 30,18.0001 L36,18.0001 C36,12.0571 33.107,6.8031 28.667,3.5251" id="Fill-10"></path>
            <path d="M7.335,3.5231 C2.894,6.8011 0,12.0551 0,18.0001 L2,18.0001 C2,12.9131 4.721,8.4741 8.777,6.0221 L7.335,3.5231 Z" id="Fill-12"></path>
            <path d="M18,-0.0003 C15.435,-0.0003 13,0.5447 10.792,1.5117 L12.494,4.4597 C13.616,4.1707 14.787,3.9997 16,3.9997 C18.455,3.9997 20.761,4.6357 22.767,5.7457 L25.211,1.5127 C23.002,0.5457 20.565,-0.0003 18,-0.0003" id="Fill-14"></path>
            <path d="M15.0049,17.4196 C14.0479,17.9756 13.7219,19.1966 14.2729,20.1516 C14.8249,21.1096 16.0499,21.4386 17.0049,20.8836 L30.7279,10.6506 L15.0049,17.4196 Z" id="Fill-16"></path>
        </g>
    </g>
</svg>