<?xml version="1.0" encoding="UTF-8" standalone="no"?>
<svg width="50px" height="50px" viewBox="0 0 50 50" version="1.1" xmlns="http://www.w3.org/2000/svg" xmlns:xlink="http://www.w3.org/1999/xlink">
    <!-- Generator: Sketch 3.8.1 (29687) - http://www.bohemiancoding.com/sketch -->
    <title>Slice 1</title>
    <desc>Created with Sketch.</desc>
    <defs></defs>
    <g id="Page-1" stroke="none" stroke-width="1" fill="none" fill-rule="evenodd">
        <g id="Sound-icon" transform="translate(9.000000, 13.000000)" fill="#D8D8D8">
            <polygon id="Fill-1" points="4.5882 7.6244 0.0002 7.6244 0.0002 16.5464 4.5882 16.5464 12.4842 22.6464 12.4842 1.4684"></polygon>
            <path d="M16.9638,17.3458 C16.6798,17.3458 16.4218,17.2318 16.2238,17.0318 C15.8238,16.6338 15.8518,15.9758 16.2518,15.5778 C17.1338,14.7218 17.6478,13.4698 17.6478,12.1018 C17.6478,10.7338 17.1338,9.4498 16.2518,8.6258 C15.8518,8.2238 15.8238,7.5698 16.2238,7.1698 C16.6218,6.7718 17.2778,6.7418 17.6758,7.1398 C18.9598,8.3678 19.7278,10.1918 19.7278,12.1298 C19.7278,14.0678 18.9878,15.8638 17.6758,17.1178 C17.4778,17.2318 17.2218,17.3458 16.9638,17.3458" id="Fill-2"></path>
            <path d="M21.5292,20.3106 C21.2732,20.3106 20.9872,20.1946 20.7892,19.9966 C20.3892,19.5986 20.3892,18.9406 20.7892,18.5426 C22.4132,16.9446 23.3252,14.5826 23.3252,12.0726 C23.3252,9.5666 22.3852,7.1986 20.7892,5.6026 C20.3892,5.2026 20.3892,4.5466 20.7892,4.1486 C21.1872,3.7506 21.8432,3.7506 22.2412,4.1486 C24.2372,6.1146 25.4052,9.0226 25.4052,12.1026 C25.4052,15.1806 24.2652,18.0586 22.2412,20.0546 C22.0432,20.1946 21.7852,20.3106 21.5292,20.3106" id="Fill-4"></path>
            <path d="M26.123,23.1602 C25.867,23.1602 25.581,23.0462 25.383,22.8482 C24.983,22.4482 24.983,21.7922 25.383,21.3922 C25.639,21.1362 25.895,20.8522 26.123,20.5662 C27.975,18.2862 29.001,15.2922 29.001,12.0722 C29.001,8.8522 27.975,5.8602 26.123,3.5782 C25.895,3.2922 25.639,3.0082 25.383,2.7522 C24.983,2.3522 24.983,1.6982 25.383,1.2962 C25.781,0.9002 26.437,0.9002 26.835,1.2962 C27.149,1.6142 27.435,1.9262 27.719,2.2702 C29.885,4.8902 31.083,8.3942 31.083,12.0722 C31.083,15.7502 29.885,19.2262 27.747,21.8782 C27.463,22.2182 27.177,22.5622 26.865,22.8482 C26.635,23.0462 26.379,23.1602 26.123,23.1602" id="Fill-6"></path>
        </g>
    </g>
</svg>